<svg xmlns="http://www.w3.org/2000/svg" xmlns:xlink="http://www.w3.org/1999/xlink" width="500" zoomAndPan="magnify" viewBox="0 0 375 374.999991" height="500" preserveAspectRatio="xMidYMid meet" version="1.2"><defs><clipPath id="2a742202a1"><path d="M 58.570312 149.46875 L 75.121094 149.46875 L 75.121094 166.019531 L 58.570312 166.019531 Z M 58.570312 149.46875 "/></clipPath><clipPath id="d3ea38a48c"><path d="M 66.84375 149.46875 C 62.273438 149.46875 58.570312 153.175781 58.570312 157.746094 C 58.570312 162.316406 62.273438 166.019531 66.84375 166.019531 C 71.414062 166.019531 75.121094 162.316406 75.121094 157.746094 C 75.121094 153.175781 71.414062 149.46875 66.84375 149.46875 Z M 66.84375 149.46875 "/></clipPath><clipPath id="f8542cc461"><path d="M 37.03125 171.363281 L 60.21875 171.363281 L 60.21875 194.554688 L 37.03125 194.554688 Z M 37.03125 171.363281 "/></clipPath><clipPath id="0cd267f653"><path d="M 48.625 171.363281 C 42.222656 171.363281 37.03125 176.554688 37.03125 182.960938 C 37.03125 189.363281 42.222656 194.554688 48.625 194.554688 C 55.027344 194.554688 60.21875 189.363281 60.21875 182.960938 C 60.21875 176.554688 55.027344 171.363281 48.625 171.363281 Z M 48.625 171.363281 "/></clipPath><clipPath id="53b690edc2"><path d="M 106.859375 144.15625 L 128.722656 144.15625 L 128.722656 166.019531 L 106.859375 166.019531 Z M 106.859375 144.15625 "/></clipPath><clipPath id="f70381eb29"><path d="M 117.792969 144.15625 C 111.753906 144.15625 106.859375 149.050781 106.859375 155.089844 C 106.859375 161.125 111.753906 166.019531 117.792969 166.019531 C 123.828125 166.019531 128.722656 161.125 128.722656 155.089844 C 128.722656 149.050781 123.828125 144.15625 117.792969 144.15625 Z M 117.792969 144.15625 "/></clipPath><clipPath id="180afac231"><path d="M 79.128906 211.449219 L 98.519531 211.449219 L 98.519531 230.84375 L 79.128906 230.84375 Z M 79.128906 211.449219 "/></clipPath><clipPath id="a52fdbc5da"><path d="M 88.824219 211.449219 C 83.46875 211.449219 79.128906 215.789062 79.128906 221.144531 C 79.128906 226.5 83.46875 230.84375 88.824219 230.84375 C 94.179688 230.84375 98.519531 226.5 98.519531 221.144531 C 98.519531 215.789062 94.179688 211.449219 88.824219 211.449219 Z M 88.824219 211.449219 "/></clipPath><clipPath id="dff3d18039"><path d="M 76.507812 170.644531 L 101.257812 170.644531 L 101.257812 195.394531 L 76.507812 195.394531 Z M 76.507812 170.644531 "/></clipPath><clipPath id="221189cbcd"><path d="M 78 171.785156 L 100.207031 171.785156 L 100.207031 194.285156 L 78 194.285156 Z M 78 171.785156 "/></clipPath></defs><g id="8ca0733ca2"><g clip-rule="nonzero" clip-path="url(#2a742202a1)"><g clip-rule="nonzero" clip-path="url(#d3ea38a48c)"><path style=" stroke:none;fill-rule:nonzero;fill:#000000;fill-opacity:1;" d="M 58.570312 149.46875 L 75.121094 149.46875 L 75.121094 166.019531 L 58.570312 166.019531 Z M 58.570312 149.46875 "/></g></g><g clip-rule="nonzero" clip-path="url(#f8542cc461)"><g clip-rule="nonzero" clip-path="url(#0cd267f653)"><path style=" stroke:none;fill-rule:nonzero;fill:#000000;fill-opacity:1;" d="M 37.03125 171.363281 L 60.21875 171.363281 L 60.21875 194.554688 L 37.03125 194.554688 Z M 37.03125 171.363281 "/></g></g><g clip-rule="nonzero" clip-path="url(#53b690edc2)"><g clip-rule="nonzero" clip-path="url(#f70381eb29)"><path style=" stroke:none;fill-rule:nonzero;fill:#000000;fill-opacity:1;" d="M 106.859375 144.15625 L 128.722656 144.15625 L 128.722656 166.019531 L 106.859375 166.019531 Z M 106.859375 144.15625 "/></g></g><g clip-rule="nonzero" clip-path="url(#180afac231)"><g clip-rule="nonzero" clip-path="url(#a52fdbc5da)"><path style=" stroke:none;fill-rule:nonzero;fill:#000000;fill-opacity:1;" d="M 79.128906 211.449219 L 98.519531 211.449219 L 98.519531 230.84375 L 79.128906 230.84375 Z M 79.128906 211.449219 "/></g></g><path style="fill:none;stroke-width:3;stroke-linecap:butt;stroke-linejoin:miter;stroke:#000000;stroke-opacity:1;stroke-miterlimit:4;" d="M 0.000466978 1.501187 L 17.48198 1.498589 " transform="matrix(0.482124,0.547972,-0.547972,0.482124,73.154414,163.217392)"/><path style="fill:none;stroke-width:3;stroke-linecap:butt;stroke-linejoin:miter;stroke:#000000;stroke-opacity:1;stroke-miterlimit:4;" d="M -0.0000912459 1.49637 L 38.055272 1.498078 " transform="matrix(-0.54308,0.515926,-0.515926,-0.54308,118.561029,155.906445)"/><g clip-rule="nonzero" clip-path="url(#dff3d18039)"><path style=" stroke:none;fill-rule:nonzero;fill:#000000;fill-opacity:1;" d="M 88.386719 170.667969 C 88.332031 170.671875 88.152344 170.683594 87.992188 170.695312 C 86.035156 170.855469 84.03125 171.550781 82.351562 172.667969 C 80.71875 173.75 79.316406 175.273438 78.410156 176.953125 C 78.355469 177.058594 78.277344 177.199219 78.242188 177.265625 C 78.210938 177.328125 78.117188 177.511719 78.046875 177.667969 C 76.601562 180.769531 76.507812 184.320312 77.785156 187.484375 C 79.007812 190.519531 81.441406 192.960938 84.457031 194.195312 C 87.105469 195.277344 90.03125 195.386719 92.742188 194.503906 C 94.03125 194.085938 95.167969 193.492188 96.261719 192.671875 C 97.125 192.023438 98.015625 191.132812 98.683594 190.25 C 99.773438 188.804688 100.550781 187.066406 100.90625 185.28125 C 101.257812 183.503906 101.222656 181.699219 100.792969 179.953125 C 99.722656 175.574219 96.316406 172.117188 91.996094 171.027344 C 91.335938 170.859375 90.800781 170.769531 90.074219 170.695312 C 89.847656 170.671875 88.578125 170.652344 88.386719 170.667969 Z M 89.824219 172.136719 C 90.878906 172.21875 91.847656 172.4375 92.839844 172.816406 C 94.609375 173.484375 96.191406 174.652344 97.40625 176.175781 C 97.605469 176.425781 98.019531 177.035156 98.242188 177.398438 C 98.425781 177.707031 98.898438 178.65625 98.898438 178.722656 C 98.898438 178.730469 98.917969 178.773438 98.941406 178.824219 C 99.105469 179.191406 99.382812 180.105469 99.496094 180.675781 C 99.664062 181.476562 99.71875 182.019531 99.71875 182.878906 C 99.71875 183.988281 99.601562 184.835938 99.296875 185.90625 C 98.53125 188.597656 96.703125 190.910156 94.257812 192.292969 C 92.957031 193.03125 91.546875 193.464844 89.964844 193.625 C 89.609375 193.664062 88.484375 193.660156 88.113281 193.625 C 86.953125 193.511719 85.882812 193.242188 84.875 192.816406 C 84.46875 192.644531 83.855469 192.328125 83.4375 192.070312 C 82.375 191.421875 81.3125 190.457031 80.546875 189.441406 C 79.289062 187.773438 78.550781 185.84375 78.375 183.742188 C 78.339844 183.277344 78.363281 182.019531 78.417969 181.589844 C 78.515625 180.867188 78.679688 180.128906 78.886719 179.496094 C 78.984375 179.191406 79.222656 178.574219 79.277344 178.472656 C 79.289062 178.453125 79.367188 178.292969 79.449219 178.117188 C 80.382812 176.167969 82.007812 174.46875 83.941406 173.410156 C 85.246094 172.699219 86.714844 172.261719 88.222656 172.140625 C 88.542969 172.113281 89.5 172.113281 89.824219 172.136719 Z M 89.824219 172.136719 "/></g><path style="fill:none;stroke-width:3;stroke-linecap:butt;stroke-linejoin:miter;stroke:#000000;stroke-opacity:1;stroke-miterlimit:4;" d="M -0.00230996 1.501165 L 43.065407 1.501165 " transform="matrix(0,0.748911,-0.748911,0,89.948459,194.134542)"/><path style="fill:none;stroke-width:3;stroke-linecap:butt;stroke-linejoin:miter;stroke:#000000;stroke-opacity:1;stroke-miterlimit:4;" d="M 0.00217835 1.502438 L 39.851139 1.502438 " transform="matrix(-0.75,0,0,-0.75,78.189134,184.14636)"/><g clip-rule="nonzero" clip-path="url(#221189cbcd)"><path style=" stroke:none;fill-rule:nonzero;fill:#000000;fill-opacity:1;" d="M 88.503906 171.804688 C 88.453125 171.808594 88.292969 171.824219 88.144531 171.835938 C 86.367188 171.976562 84.546875 172.613281 83.015625 173.625 C 81.53125 174.609375 80.261719 175.996094 79.4375 177.519531 C 79.382812 177.617188 79.3125 177.746094 79.28125 177.804688 C 79.253906 177.863281 79.171875 178.027344 79.105469 178.171875 C 77.792969 180.992188 77.707031 184.21875 78.867188 187.097656 C 79.980469 189.855469 82.1875 192.074219 84.933594 193.195312 C 87.339844 194.179688 90 194.277344 92.464844 193.476562 C 93.636719 193.09375 94.667969 192.554688 95.664062 191.8125 C 96.449219 191.222656 97.257812 190.414062 97.867188 189.609375 C 98.855469 188.296875 99.5625 186.714844 99.886719 185.09375 C 100.207031 183.476562 100.171875 181.835938 99.78125 180.25 C 98.8125 176.269531 95.714844 173.125 91.785156 172.132812 C 91.1875 171.984375 90.699219 171.898438 90.039062 171.835938 C 89.832031 171.8125 88.679688 171.792969 88.503906 171.804688 Z M 89.8125 173.144531 C 90.769531 173.21875 91.652344 173.417969 92.554688 173.757812 C 94.160156 174.367188 95.601562 175.429688 96.703125 176.816406 C 96.882812 177.042969 97.261719 177.597656 97.460938 177.925781 C 97.628906 178.207031 98.0625 179.070312 98.0625 179.128906 C 98.0625 179.136719 98.078125 179.179688 98.097656 179.222656 C 98.25 179.554688 98.5 180.386719 98.605469 180.90625 C 98.753906 181.636719 98.804688 182.128906 98.808594 182.910156 C 98.808594 183.917969 98.699219 184.6875 98.421875 185.660156 C 97.726562 188.105469 96.066406 190.210938 93.839844 191.46875 C 92.660156 192.136719 91.378906 192.535156 89.941406 192.679688 C 89.617188 192.710938 88.59375 192.710938 88.253906 192.675781 C 87.203125 192.574219 86.230469 192.332031 85.3125 191.941406 C 84.945312 191.785156 84.386719 191.496094 84.003906 191.265625 C 83.039062 190.675781 82.074219 189.796875 81.378906 188.875 C 80.234375 187.359375 79.5625 185.601562 79.402344 183.695312 C 79.371094 183.273438 79.390625 182.128906 79.445312 181.738281 C 79.53125 181.082031 79.679688 180.410156 79.867188 179.832031 C 79.957031 179.558594 80.175781 178.996094 80.222656 178.902344 C 80.234375 178.886719 80.304688 178.738281 80.378906 178.582031 C 81.226562 176.808594 82.703125 175.261719 84.464844 174.300781 C 85.648438 173.652344 86.984375 173.257812 88.355469 173.144531 C 88.648438 173.121094 89.519531 173.121094 89.8125 173.144531 Z M 89.8125 173.144531 "/></g><g style="fill:#000000;fill-opacity:1;"><g transform="translate(130.22257, 200.759782)"><path style="stroke:none" d="M 13.78125 -27.46875 C 15.113281 -27.46875 16.394531 -27.207031 17.625 -26.6875 C 18.851562 -26.175781 19.90625 -25.351562 20.78125 -24.21875 L 20.78125 -27.015625 L 28.609375 -27.015625 L 28.609375 0 L 20.78125 0 L 20.78125 -2.703125 C 19.84375 -1.566406 18.75 -0.773438 17.5 -0.328125 C 16.25 0.117188 14.976562 0.34375 13.6875 0.34375 C 10.851562 0.34375 8.46875 -0.316406 6.53125 -1.640625 C 4.601562 -2.972656 3.148438 -4.726562 2.171875 -6.90625 C 1.191406 -9.09375 0.703125 -11.414062 0.703125 -13.875 C 0.703125 -16.34375 1.179688 -18.609375 2.140625 -20.671875 C 3.109375 -22.734375 4.554688 -24.378906 6.484375 -25.609375 C 8.421875 -26.847656 10.851562 -27.46875 13.78125 -27.46875 Z M 14.625 -7.1875 C 15.757812 -7.1875 16.789062 -7.476562 17.71875 -8.0625 C 18.65625 -8.644531 19.398438 -9.425781 19.953125 -10.40625 C 20.503906 -11.394531 20.78125 -12.488281 20.78125 -13.6875 C 20.78125 -14.882812 20.503906 -15.984375 19.953125 -16.984375 C 19.398438 -17.984375 18.65625 -18.769531 17.71875 -19.34375 C 16.789062 -19.925781 15.757812 -20.21875 14.625 -20.21875 C 13.300781 -20.21875 12.1875 -19.898438 11.28125 -19.265625 C 10.382812 -18.640625 9.710938 -17.828125 9.265625 -16.828125 C 8.816406 -15.828125 8.59375 -14.78125 8.59375 -13.6875 C 8.59375 -12.613281 8.816406 -11.578125 9.265625 -10.578125 C 9.710938 -9.585938 10.382812 -8.773438 11.28125 -8.140625 C 12.1875 -7.503906 13.300781 -7.1875 14.625 -7.1875 Z M 14.625 -7.1875 "/></g></g><g style="fill:#000000;fill-opacity:1;"><g transform="translate(162.330294, 200.759782)"><path style="stroke:none" d="M 1.09375 -32.953125 C 1.09375 -34.484375 1.582031 -35.628906 2.5625 -36.390625 C 3.550781 -37.160156 4.613281 -37.546875 5.75 -37.546875 C 6.945312 -37.546875 8.039062 -37.171875 9.03125 -36.421875 C 10.03125 -35.679688 10.53125 -34.523438 10.53125 -32.953125 C 10.53125 -31.492188 10.046875 -30.394531 9.078125 -29.65625 C 8.117188 -28.925781 7.054688 -28.5625 5.890625 -28.5625 C 4.691406 -28.5625 3.59375 -28.925781 2.59375 -29.65625 C 1.59375 -30.394531 1.09375 -31.492188 1.09375 -32.953125 Z M 1.84375 -27.015625 L 1.84375 0 L 9.84375 0 L 9.84375 -27.015625 Z M 1.84375 -27.015625 "/></g></g><g style="fill:#000000;fill-opacity:1;"><g transform="translate(175.712671, 200.759782)"><path style="stroke:none" d="M 8.890625 -25.21875 C 9.753906 -26.050781 10.675781 -26.648438 11.65625 -27.015625 C 12.644531 -27.378906 13.6875 -27.5625 14.78125 -27.5625 C 15.675781 -27.5625 16.691406 -27.429688 17.828125 -27.171875 L 17.734375 -19.78125 C 16.859375 -20.039062 15.972656 -20.171875 15.078125 -20.171875 C 14.148438 -20.171875 13.242188 -19.988281 12.359375 -19.625 C 11.472656 -19.257812 10.75 -18.703125 10.1875 -17.953125 C 9.625 -17.203125 9.34375 -16.210938 9.34375 -14.984375 L 9.34375 0 L 1.5 0 L 1.5 -27.015625 L 8.59375 -27.015625 Z M 8.890625 -25.21875 "/></g></g><g style="fill:#000000;fill-opacity:1;"><g transform="translate(196.185725, 200.759782)"><path style="stroke:none" d="M 16.28125 -27.46875 C 19.207031 -27.46875 21.632812 -26.847656 23.5625 -25.609375 C 25.5 -24.378906 26.945312 -22.734375 27.90625 -20.671875 C 28.875 -18.609375 29.359375 -16.34375 29.359375 -13.875 C 29.359375 -11.414062 28.867188 -9.09375 27.890625 -6.90625 C 26.910156 -4.726562 25.460938 -2.972656 23.546875 -1.640625 C 21.628906 -0.316406 19.238281 0.34375 16.375 0.34375 C 15.082031 0.34375 13.800781 0.117188 12.53125 -0.328125 C 11.269531 -0.773438 10.171875 -1.566406 9.234375 -2.703125 L 9.234375 0 L 1.453125 0 L 1.453125 -35.5625 L 9.234375 -35.5625 L 9.234375 -24.5625 C 10.140625 -25.601562 11.207031 -26.347656 12.4375 -26.796875 C 13.664062 -27.242188 14.945312 -27.46875 16.28125 -27.46875 Z M 15.4375 -7.1875 C 16.757812 -7.1875 17.867188 -7.503906 18.765625 -8.140625 C 19.671875 -8.773438 20.347656 -9.585938 20.796875 -10.578125 C 21.242188 -11.578125 21.46875 -12.613281 21.46875 -13.6875 C 21.46875 -14.78125 21.242188 -15.828125 20.796875 -16.828125 C 20.347656 -17.828125 19.679688 -18.640625 18.796875 -19.265625 C 17.921875 -19.898438 16.800781 -20.21875 15.4375 -20.21875 C 14.300781 -20.21875 13.265625 -19.925781 12.328125 -19.34375 C 11.398438 -18.769531 10.648438 -17.984375 10.078125 -16.984375 C 9.515625 -15.984375 9.234375 -14.882812 9.234375 -13.6875 C 9.234375 -12.488281 9.515625 -11.394531 10.078125 -10.40625 C 10.648438 -9.425781 11.398438 -8.644531 12.328125 -8.0625 C 13.265625 -7.476562 14.300781 -7.1875 15.4375 -7.1875 Z M 15.4375 -7.1875 "/></g></g><g style="fill:#000000;fill-opacity:1;"><g transform="translate(228.193599, 200.759782)"><path style="stroke:none" d="M 28.5625 -13.578125 C 28.5625 -12.515625 28.460938 -11.484375 28.265625 -10.484375 L 8.890625 -10.484375 C 9.359375 -9.253906 10.140625 -8.320312 11.234375 -7.6875 C 12.335938 -7.050781 13.488281 -6.71875 14.6875 -6.6875 C 15.550781 -6.6875 16.378906 -6.835938 17.171875 -7.140625 C 17.972656 -7.441406 18.65625 -7.910156 19.21875 -8.546875 L 27.765625 -8.546875 C 27.097656 -6.578125 26.082031 -4.929688 24.71875 -3.609375 C 23.351562 -2.296875 21.785156 -1.316406 20.015625 -0.671875 C 18.253906 -0.0234375 16.441406 0.296875 14.578125 0.296875 C 12.847656 0.296875 11.148438 0.00390625 9.484375 -0.578125 C 7.816406 -1.160156 6.316406 -2.023438 4.984375 -3.171875 C 3.660156 -4.316406 2.609375 -5.765625 1.828125 -7.515625 C 1.046875 -9.265625 0.65625 -11.285156 0.65625 -13.578125 C 0.65625 -15.878906 1.046875 -17.894531 1.828125 -19.625 C 2.609375 -21.351562 3.660156 -22.789062 4.984375 -23.9375 C 6.316406 -25.09375 7.816406 -25.960938 9.484375 -26.546875 C 11.148438 -27.128906 12.863281 -27.421875 14.625 -27.421875 C 16.363281 -27.421875 18.0625 -27.128906 19.71875 -26.546875 C 21.382812 -25.960938 22.882812 -25.09375 24.21875 -23.9375 C 25.550781 -22.789062 26.609375 -21.351562 27.390625 -19.625 C 28.171875 -17.894531 28.5625 -15.878906 28.5625 -13.578125 Z M 19.96875 -16.625 C 19.601562 -17.988281 18.910156 -18.988281 17.890625 -19.625 C 16.878906 -20.257812 15.742188 -20.578125 14.484375 -20.578125 C 13.316406 -20.578125 12.238281 -20.25 11.25 -19.59375 C 10.269531 -18.945312 9.582031 -17.957031 9.1875 -16.625 Z M 19.96875 -16.625 "/></g></g><g style="fill:#000000;fill-opacity:1;"><g transform="translate(260.151531, 200.759782)"><path style="stroke:none" d="M 13.78125 -27.46875 C 15.113281 -27.46875 16.394531 -27.207031 17.625 -26.6875 C 18.851562 -26.175781 19.90625 -25.351562 20.78125 -24.21875 L 20.78125 -27.015625 L 28.609375 -27.015625 L 28.609375 0 L 20.78125 0 L 20.78125 -2.703125 C 19.84375 -1.566406 18.75 -0.773438 17.5 -0.328125 C 16.25 0.117188 14.976562 0.34375 13.6875 0.34375 C 10.851562 0.34375 8.46875 -0.316406 6.53125 -1.640625 C 4.601562 -2.972656 3.148438 -4.726562 2.171875 -6.90625 C 1.191406 -9.09375 0.703125 -11.414062 0.703125 -13.875 C 0.703125 -16.34375 1.179688 -18.609375 2.140625 -20.671875 C 3.109375 -22.734375 4.554688 -24.378906 6.484375 -25.609375 C 8.421875 -26.847656 10.851562 -27.46875 13.78125 -27.46875 Z M 14.625 -7.1875 C 15.757812 -7.1875 16.789062 -7.476562 17.71875 -8.0625 C 18.65625 -8.644531 19.398438 -9.425781 19.953125 -10.40625 C 20.503906 -11.394531 20.78125 -12.488281 20.78125 -13.6875 C 20.78125 -14.882812 20.503906 -15.984375 19.953125 -16.984375 C 19.398438 -17.984375 18.65625 -18.769531 17.71875 -19.34375 C 16.789062 -19.925781 15.757812 -20.21875 14.625 -20.21875 C 13.300781 -20.21875 12.1875 -19.898438 11.28125 -19.265625 C 10.382812 -18.640625 9.710938 -17.828125 9.265625 -16.828125 C 8.816406 -15.828125 8.59375 -14.78125 8.59375 -13.6875 C 8.59375 -12.613281 8.816406 -11.578125 9.265625 -10.578125 C 9.710938 -9.585938 10.382812 -8.773438 11.28125 -8.140625 C 12.1875 -7.503906 13.300781 -7.1875 14.625 -7.1875 Z M 14.625 -7.1875 "/></g></g><g style="fill:#000000;fill-opacity:1;"><g transform="translate(292.259255, 200.759782)"><path style="stroke:none" d="M 9.734375 -24.3125 C 10.671875 -25.476562 11.835938 -26.285156 13.234375 -26.734375 C 14.628906 -27.191406 16.046875 -27.421875 17.484375 -27.421875 C 19.109375 -27.421875 20.453125 -27.085938 21.515625 -26.421875 C 22.585938 -25.753906 23.4375 -24.882812 24.0625 -23.8125 C 24.9375 -25.019531 26.171875 -25.910156 27.765625 -26.484375 C 29.359375 -27.066406 30.921875 -27.359375 32.453125 -27.359375 C 34.253906 -27.359375 35.882812 -26.957031 37.34375 -26.15625 C 38.8125 -25.363281 39.976562 -24.082031 40.84375 -22.3125 C 41.707031 -20.550781 42.125 -18.191406 42.09375 -15.234375 L 42.09375 0 L 34.15625 0 L 34.15625 -15.1875 C 34.15625 -16.84375 33.8125 -18.003906 33.125 -18.671875 C 32.445312 -19.335938 31.644531 -19.671875 30.71875 -19.671875 C 30.082031 -19.671875 29.390625 -19.519531 28.640625 -19.21875 C 27.890625 -18.925781 27.253906 -18.460938 26.734375 -17.828125 C 26.222656 -17.191406 25.953125 -16.375 25.921875 -15.375 L 25.921875 0 L 17.984375 0 L 17.984375 -15.1875 C 17.984375 -16.84375 17.640625 -18.003906 16.953125 -18.671875 C 16.273438 -19.335938 15.46875 -19.671875 14.53125 -19.671875 C 13.894531 -19.671875 13.234375 -19.507812 12.546875 -19.1875 C 11.867188 -18.875 11.296875 -18.394531 10.828125 -17.75 C 10.367188 -17.101562 10.140625 -16.28125 10.140625 -15.28125 L 10.140625 0 L 1.796875 0 L 1.796875 -27.015625 L 9.734375 -27.015625 Z M 9.734375 -24.3125 "/></g></g></g></svg>