<svg xmlns="http://www.w3.org/2000/svg" xmlns:xlink="http://www.w3.org/1999/xlink" width="500" zoomAndPan="magnify" viewBox="0 0 375 374.999991" height="500" preserveAspectRatio="xMidYMid meet" version="1.2"><defs><clipPath id="650da4caea"><path d="M 91.800781 37.757812 L 156.960938 37.757812 L 156.960938 102.921875 L 91.800781 102.921875 Z M 91.800781 37.757812 "/></clipPath><clipPath id="55330a802b"><path d="M 124.378906 37.757812 C 106.386719 37.757812 91.800781 52.347656 91.800781 70.339844 C 91.800781 88.335938 106.386719 102.921875 124.378906 102.921875 C 142.375 102.921875 156.960938 88.335938 156.960938 70.339844 C 156.960938 52.347656 142.375 37.757812 124.378906 37.757812 Z M 124.378906 37.757812 "/></clipPath><clipPath id="0616f91334"><path d="M 6.984375 123.96875 L 98.289062 123.96875 L 98.289062 215.273438 L 6.984375 215.273438 Z M 6.984375 123.96875 "/></clipPath><clipPath id="6d763b7720"><path d="M 52.636719 123.96875 C 27.421875 123.96875 6.984375 144.40625 6.984375 169.621094 C 6.984375 194.835938 27.421875 215.273438 52.636719 215.273438 C 77.851562 215.273438 98.289062 194.835938 98.289062 169.621094 C 98.289062 144.40625 77.851562 123.96875 52.636719 123.96875 Z M 52.636719 123.96875 "/></clipPath><clipPath id="fdd6237b1f"><path d="M 281.9375 16.84375 L 368.015625 16.84375 L 368.015625 102.921875 L 281.9375 102.921875 Z M 281.9375 16.84375 "/></clipPath><clipPath id="25ec3ee8a0"><path d="M 324.976562 16.84375 C 301.207031 16.84375 281.9375 36.113281 281.9375 59.882812 C 281.9375 83.652344 301.207031 102.921875 324.976562 102.921875 C 348.746094 102.921875 368.015625 83.652344 368.015625 59.882812 C 368.015625 36.113281 348.746094 16.84375 324.976562 16.84375 Z M 324.976562 16.84375 "/></clipPath><clipPath id="69ffb8d282"><path d="M 172.742188 281.796875 L 249.101562 281.796875 L 249.101562 358.15625 L 172.742188 358.15625 Z M 172.742188 281.796875 "/></clipPath><clipPath id="f36a68cd12"><path d="M 210.921875 281.796875 C 189.835938 281.796875 172.742188 298.890625 172.742188 319.976562 C 172.742188 341.0625 189.835938 358.15625 210.921875 358.15625 C 232.007812 358.15625 249.101562 341.0625 249.101562 319.976562 C 249.101562 298.890625 232.007812 281.796875 210.921875 281.796875 Z M 210.921875 281.796875 "/></clipPath><clipPath id="ff1b8e50dd"><path d="M 163 121.128906 L 259 121.128906 L 259 218 L 163 218 Z M 163 121.128906 "/></clipPath><clipPath id="740e85099d"><path d="M 168 125.625 L 254.894531 125.625 L 254.894531 213 L 168 213 Z M 168 125.625 "/></clipPath></defs><g id="fa7280982d"><g clip-rule="nonzero" clip-path="url(#650da4caea)"><g clip-rule="nonzero" clip-path="url(#55330a802b)"><path style=" stroke:none;fill-rule:nonzero;fill:#000000;fill-opacity:1;" d="M 91.800781 37.757812 L 156.960938 37.757812 L 156.960938 102.921875 L 91.800781 102.921875 Z M 91.800781 37.757812 "/></g></g><g clip-rule="nonzero" clip-path="url(#0616f91334)"><g clip-rule="nonzero" clip-path="url(#6d763b7720)"><path style=" stroke:none;fill-rule:nonzero;fill:#000000;fill-opacity:1;" d="M 6.984375 123.96875 L 98.289062 123.96875 L 98.289062 215.273438 L 6.984375 215.273438 Z M 6.984375 123.96875 "/></g></g><g clip-rule="nonzero" clip-path="url(#fdd6237b1f)"><g clip-rule="nonzero" clip-path="url(#25ec3ee8a0)"><path style=" stroke:none;fill-rule:nonzero;fill:#000000;fill-opacity:1;" d="M 281.9375 16.84375 L 368.015625 16.84375 L 368.015625 102.921875 L 281.9375 102.921875 Z M 281.9375 16.84375 "/></g></g><g clip-rule="nonzero" clip-path="url(#69ffb8d282)"><g clip-rule="nonzero" clip-path="url(#f36a68cd12)"><path style=" stroke:none;fill-rule:nonzero;fill:#000000;fill-opacity:1;" d="M 172.742188 281.796875 L 249.101562 281.796875 L 249.101562 358.15625 L 172.742188 358.15625 Z M 172.742188 281.796875 "/></g></g><path style="fill:none;stroke-width:12;stroke-linecap:butt;stroke-linejoin:miter;stroke:#000000;stroke-opacity:1;stroke-miterlimit:4;" d="M -0.00060509 5.998113 L 68.828572 6.000907 " transform="matrix(0.495418,0.563081,-0.563081,0.495418,149.280069,91.829548)"/><path style="fill:none;stroke-width:12;stroke-linecap:butt;stroke-linejoin:miter;stroke:#000000;stroke-opacity:1;stroke-miterlimit:4;" d="M 0.00150476 5.999766 L 149.843221 6.000173 " transform="matrix(-0.543749,0.516562,-0.516562,-0.543749,328.068821,63.148311)"/><g clip-rule="nonzero" clip-path="url(#ff1b8e50dd)"><path style=" stroke:none;fill-rule:nonzero;fill:#000000;fill-opacity:1;" d="M 208.859375 121.210938 C 208.644531 121.226562 207.949219 121.277344 207.3125 121.332031 C 199.660156 121.949219 191.835938 124.703125 185.265625 129.097656 C 178.882812 133.363281 173.40625 139.371094 169.863281 145.976562 C 169.640625 146.398438 169.339844 146.957031 169.203125 147.207031 C 169.074219 147.464844 168.722656 148.179688 168.441406 148.796875 C 162.796875 161.019531 162.425781 175.007812 167.417969 187.480469 C 172.199219 199.429688 181.703125 209.054688 193.5 213.917969 C 203.855469 218.175781 215.292969 218.605469 225.886719 215.128906 C 230.925781 213.476562 235.367188 211.136719 239.640625 207.921875 C 243.019531 205.367188 246.496094 201.855469 249.113281 198.363281 C 253.375 192.675781 256.40625 185.832031 257.796875 178.792969 C 259.175781 171.792969 259.03125 164.6875 257.355469 157.804688 C 253.179688 140.546875 239.855469 126.921875 222.960938 122.628906 C 220.390625 121.976562 218.304688 121.613281 215.464844 121.332031 C 214.570312 121.234375 209.605469 121.148438 208.859375 121.210938 Z M 214.484375 127.007812 C 218.59375 127.335938 222.386719 128.195312 226.273438 129.675781 C 233.179688 132.316406 239.375 136.917969 244.121094 142.921875 C 244.890625 143.902344 246.511719 146.304688 247.378906 147.738281 C 248.101562 148.953125 249.953125 152.695312 249.953125 152.953125 C 249.953125 152.976562 250.03125 153.160156 250.117188 153.355469 C 250.761719 154.792969 251.839844 158.398438 252.296875 160.644531 C 252.9375 163.808594 253.152344 165.949219 253.160156 169.332031 C 253.160156 173.699219 252.699219 177.039062 251.507812 181.261719 C 248.511719 191.859375 241.375 200.980469 231.808594 206.425781 C 226.730469 209.324219 221.222656 211.042969 215.035156 211.671875 C 213.636719 211.816406 209.234375 211.808594 207.785156 211.664062 C 203.253906 211.214844 199.078125 210.167969 195.132812 208.480469 C 193.550781 207.808594 191.148438 206.554688 189.511719 205.546875 C 185.359375 202.992188 181.207031 199.179688 178.210938 195.179688 C 173.296875 188.617188 170.414062 181.003906 169.726562 172.738281 C 169.582031 170.90625 169.675781 165.949219 169.898438 164.253906 C 170.269531 161.410156 170.910156 158.5 171.726562 155.996094 C 172.113281 154.800781 173.039062 152.367188 173.246094 151.972656 C 173.296875 151.894531 173.597656 151.257812 173.921875 150.570312 C 177.570312 142.886719 183.917969 136.1875 191.484375 132.023438 C 196.582031 129.21875 202.328125 127.5 208.214844 127.015625 C 209.476562 126.914062 213.214844 126.90625 214.484375 127.007812 Z M 214.484375 127.007812 "/></g><path style="fill:none;stroke-width:12;stroke-linecap:butt;stroke-linejoin:miter;stroke:#000000;stroke-opacity:1;stroke-miterlimit:4;" d="M 0.0010333 6.002359 L 169.563544 6.002359 " transform="matrix(0,0.75,-0.75,0,215.419738,213.620319)"/><path style="fill:none;stroke-width:12;stroke-linecap:butt;stroke-linejoin:miter;stroke:#000000;stroke-opacity:1;stroke-miterlimit:4;" d="M 0.00141093 5.998037 L 156.918088 5.998037 " transform="matrix(-0.75,0,0,-0.75,169.063558,174.365715)"/><g clip-rule="nonzero" clip-path="url(#740e85099d)"><path style=" stroke:none;fill-rule:nonzero;fill:#000000;fill-opacity:1;" d="M 209.257812 125.691406 C 209.0625 125.707031 208.429688 125.753906 207.855469 125.800781 C 200.914062 126.359375 193.816406 128.835938 187.855469 132.792969 C 182.066406 136.632812 177.101562 142.039062 173.890625 147.984375 C 173.6875 148.363281 173.414062 148.867188 173.289062 149.09375 C 173.175781 149.324219 172.855469 149.96875 172.597656 150.523438 C 167.476562 161.527344 167.144531 174.117188 171.671875 185.34375 C 176.007812 196.101562 184.628906 204.765625 195.328125 209.140625 C 204.71875 212.972656 215.09375 213.359375 224.703125 210.230469 C 229.269531 208.746094 233.300781 206.636719 237.175781 203.742188 C 240.242188 201.441406 243.394531 198.285156 245.765625 195.140625 C 249.632812 190.023438 252.378906 183.859375 253.640625 177.523438 C 254.894531 171.222656 254.761719 164.828125 253.242188 158.632812 C 249.453125 143.097656 237.371094 130.835938 222.046875 126.972656 C 219.714844 126.382812 217.824219 126.058594 215.246094 125.800781 C 214.4375 125.714844 209.933594 125.640625 209.257812 125.691406 Z M 214.359375 130.910156 C 218.085938 131.207031 221.527344 131.980469 225.050781 133.3125 C 231.316406 135.691406 236.933594 139.832031 241.238281 145.238281 C 241.9375 146.121094 243.40625 148.28125 244.195312 149.574219 C 244.847656 150.664062 246.527344 154.03125 246.527344 154.265625 C 246.527344 154.289062 246.597656 154.449219 246.675781 154.628906 C 247.261719 155.921875 248.242188 159.167969 248.652344 161.1875 C 249.238281 164.035156 249.429688 165.964844 249.4375 169.007812 C 249.4375 172.941406 249.019531 175.945312 247.9375 179.746094 C 245.222656 189.285156 238.746094 197.492188 230.070312 202.394531 C 225.464844 205.003906 220.46875 206.554688 214.859375 207.117188 C 213.589844 207.25 209.597656 207.242188 208.285156 207.109375 C 204.175781 206.707031 200.386719 205.761719 196.804688 204.246094 C 195.375 203.640625 193.195312 202.511719 191.710938 201.605469 C 187.941406 199.304688 184.175781 195.875 181.460938 192.273438 C 177.003906 186.367188 174.386719 179.515625 173.765625 172.074219 C 173.632812 170.425781 173.71875 165.964844 173.921875 164.4375 C 174.253906 161.875 174.839844 159.257812 175.578125 157.007812 C 175.929688 155.929688 176.769531 153.738281 176.957031 153.382812 C 177.003906 153.3125 177.273438 152.738281 177.570312 152.121094 C 180.878906 145.207031 186.636719 139.175781 193.5 135.425781 C 198.121094 132.902344 203.335938 131.351562 208.671875 130.917969 C 209.816406 130.828125 213.207031 130.820312 214.359375 130.910156 Z M 214.359375 130.910156 "/></g></g></svg>