<?xml version="1.0" encoding="UTF-8"?>
<svg version="1.1" xmlns="http://www.w3.org/2000/svg" width="1563" height="1563">
<path d="M0 0 C8.25843731 6.19706913 11.93463979 13.83800842 13.75 23.875 C14.77588007 32.9613663 11.93022642 42.38769139 6.625 49.8125 C1.28134266 56.05058926 -6.13507113 60.49958833 -14.25 61.875 C-24.36542259 62.59846976 -32.73506268 61.64318335 -41.25 55.875 C-46.49246132 60.27626409 -51.37204705 64.95086861 -56.17871094 69.82324219 C-59.39205089 73.06326731 -62.72115878 76.0810553 -66.19140625 79.0390625 C-70.39632503 82.78917982 -74.3039476 86.85617205 -78.25 90.875 C-77.90066406 91.62265625 -77.55132813 92.3703125 -77.19140625 93.140625 C-76.73636719 94.12546875 -76.28132812 95.1103125 -75.8125 96.125 C-75.36003906 97.09953125 -74.90757812 98.0740625 -74.44140625 99.078125 C-70.43864788 108.47476432 -71.45694323 118.74783301 -74.98828125 128.15234375 C-79.35306569 137.57108912 -86.51349386 144.01343678 -95.94140625 148.11328125 C-98.25 148.875 -98.25 148.875 -104.25 149.875 C-104.25 166.705 -104.25 183.535 -104.25 200.875 C-101.28 201.535 -98.31 202.195 -95.25 202.875 C-88.40487498 207.44450936 -83.00324309 213.40423012 -80 221.0625 C-77.99946944 231.2318637 -79.04499626 240.32768649 -84.72265625 249.16796875 C-89.6205777 255.33958136 -96.48318395 259.39060851 -104.25 260.875 C-114.33062287 261.70049983 -121.65915444 260.36777118 -129.5 253.8125 C-135.96480203 247.5289541 -139.33928509 242.08875675 -139.78442383 232.92407227 C-139.92354922 222.46063313 -137.31379754 215.27454789 -130.17578125 207.6015625 C-125.27389392 203.20676696 -120.70946767 201.95157794 -114.25 200.875 C-114.25 184.045 -114.25 167.215 -114.25 149.875 C-117.55 149.215 -120.85 148.555 -124.25 147.875 C-134.89753588 142.60112012 -141.146191 134.2255116 -145.40234375 123.4140625 C-146.25 120.875 -146.25 120.875 -146.25 118.875 C-163.08 118.875 -179.91 118.875 -197.25 118.875 C-197.91 121.845 -198.57 124.815 -199.25 127.875 C-200.6875 130.94140625 -200.6875 130.94140625 -202.25 133.4375 C-202.765625 134.28441406 -203.28125 135.13132812 -203.8125 136.00390625 C-204.286875 136.62136719 -204.76125 137.23882813 -205.25 137.875 C-205.91 137.875 -206.57 137.875 -207.25 137.875 C-207.58 138.865 -207.91 139.855 -208.25 140.875 C-216.21367668 147.28601015 -225.97178716 150.25653064 -236.125 150 C-245.08810478 148.90464028 -254.21645438 144.61035671 -260.375 137.9375 C-266.61608651 129.77849774 -270.38067911 120.26647947 -269.25 109.875 C-267.2841686 97.79917853 -262.64354926 89.85123776 -252.796875 82.5390625 C-243.58740279 76.52183066 -231.88703358 76.36769074 -221.28125 78.4609375 C-212.29617643 81.56021921 -204.75908351 88.82550705 -200.14453125 97.02734375 C-198.14368181 101.16010263 -197.25 104.27202866 -197.25 108.875 C-180.42 108.875 -163.59 108.875 -146.25 108.875 C-145.92 106.235 -145.59 103.595 -145.25 100.875 C-144.09375 98.01171875 -144.09375 98.01171875 -142.75 95.5625 C-141.34776474 92.965919 -140.18623513 90.6837054 -139.25 87.875 C-140.27044668 86.20842064 -140.27044668 86.20842064 -141.9375 84.5625 C-145.50481202 80.69372499 -148.95946518 76.75243993 -152.375 72.75 C-152.87733154 72.16436279 -153.37966309 71.57872559 -153.8972168 70.9753418 C-157.04663145 67.30111097 -160.15975881 63.59913682 -163.25 59.875 C-164.3225 60.205 -165.395 60.535 -166.5 60.875 C-175.16446756 62.97222978 -183.11815285 62.96100676 -190.98828125 58.5 C-197.68184938 53.69080425 -201.3716656 48.19347748 -203 40.1875 C-203.91260345 31.02702764 -200.98230965 23.90356058 -195.25 16.875 C-190.96554962 12.22331101 -185.33659038 10.87306993 -179.25 9.875 C-172.63779948 9.62218057 -166.63128162 10.93590186 -161.25 14.875 C-155.60217374 20.14229896 -151.63532483 24.7494528 -151.04296875 32.62890625 C-150.82127704 39.18933868 -151.63774992 43.88859356 -154.25 49.875 C-154.25 53.83282286 -153.00270073 54.54224162 -150.3125 57.375 C-146.12727055 61.87659325 -142.22265419 66.52780207 -138.390625 71.33203125 C-136.23168261 73.98079856 -136.23168261 73.98079856 -133.484375 76.57421875 C-131.25 78.875 -131.25 78.875 -131.25 80.875 C-130.52039063 80.5140625 -129.79078125 80.153125 -129.0390625 79.78125 C-118.80325428 75.2320019 -108.01607165 73.83379535 -97.0546875 76.71484375 C-94.69286734 77.6489965 -92.49736281 78.69760533 -90.25 79.875 C-88.58922921 80.5562214 -86.92382056 81.22650408 -85.25 81.875 C-84.8375 81.45726318 -84.425 81.03952637 -84 80.60913086 C-80.70116858 77.27394234 -77.39440203 73.94675117 -74.07421875 70.6328125 C-73.44346436 70.00262207 -72.81270996 69.37243164 -72.1628418 68.72314453 C-69.63069186 66.27663846 -66.99279675 63.97134205 -64.30078125 61.703125 C-59.3977344 57.33240895 -54.85819745 52.55232041 -50.25 47.875 C-50.45496094 47.26011719 -50.65992188 46.64523437 -50.87109375 46.01171875 C-54.5085808 35.0992576 -56.92171387 23.09595268 -51.70703125 12.1875 C-47.09292017 4.86429957 -41.55774512 -1.27284 -33.25 -4.125 C-32.61449219 -4.34671875 -31.97898437 -4.5684375 -31.32421875 -4.796875 C-20.30386924 -8.06543558 -9.57779937 -6.17968792 0 0 Z M-133.25 95.875 C-138.06542383 102.98408623 -139.36882088 110.91111579 -137.7890625 119.33203125 C-135.37613607 128.5721201 -130.67116834 134.70467703 -122.53125 139.68359375 C-115.59036257 143.30854352 -108.87533894 143.48927788 -101.25 141.875 C-92.88186979 139.0449618 -87.2774302 134.20219914 -82.93359375 126.55859375 C-79.17050613 118.38994014 -78.82956542 109.94850788 -81.9375 101.5 C-85.7078934 93.33298868 -91.22938837 88.72238714 -99.25 84.875 C-113.15423668 81.26939825 -123.80141006 85.38978418 -133.25 95.875 Z " fill="#2B2B2B" transform="translate(909.25,654.125)"/>
<path d="M0 0 C5.48247849 4.01317425 10.8752628 9.55831599 11.953125 16.4296875 C12.51613112 23.91873111 11.95086362 29.55986982 8.953125 36.4296875 C8.953125 40.38751036 10.20042427 41.09692912 12.890625 43.9296875 C17.07720995 48.43882381 21.00617311 53.08633076 24.86328125 57.87890625 C26.7072597 60.12959396 28.61875911 62.28026764 30.578125 64.4296875 C31.361875 65.4196875 32.145625 66.4096875 32.953125 67.4296875 C31.83646326 70.77967271 31.20617575 71.22308972 28.390625 73.1171875 C27.42962891 73.77267578 27.42962891 73.77267578 26.44921875 74.44140625 C25.95550781 74.76753906 25.46179688 75.09367188 24.953125 75.4296875 C19.47185291 69.45600798 14.20595042 63.36024334 9.10546875 57.05859375 C6.14135637 53.43818063 3.06573232 49.9226134 -0.046875 46.4296875 C-1.655625 46.9246875 -1.655625 46.9246875 -3.296875 47.4296875 C-11.96134256 49.52691728 -19.91502785 49.51569426 -27.78515625 45.0546875 C-34.47872438 40.24549175 -38.1685406 34.74816498 -39.796875 26.7421875 C-40.70947845 17.58171514 -37.77918465 10.45824808 -32.046875 3.4296875 C-24.1632028 -5.12972803 -9.74234243 -5.42561346 0 0 Z " fill="#2B2B2B" transform="translate(746.046875,667.5703125)"/>
<path d="M0 0 C10.1742811 6.41093177 17.35611749 15.54039858 20.1015625 27.32421875 C21.37214295 37.8518853 19.47604799 47.95782102 13.2890625 56.69921875 C6.61661996 64.73951201 -1.26972752 70.23409465 -11.8984375 71.32421875 C-11.8984375 70.66421875 -11.8984375 70.00421875 -11.8984375 69.32421875 C-15.1984375 69.32421875 -18.4984375 69.32421875 -21.8984375 69.32421875 C-21.8984375 69.98421875 -21.8984375 70.64421875 -21.8984375 71.32421875 C-32.63400124 70.20497913 -40.5228508 64.89438731 -47.359375 56.6484375 C-50.35557351 52.12372148 -53.8984375 45.86961181 -53.8984375 40.32421875 C-52.5784375 40.32421875 -51.2584375 40.32421875 -49.8984375 40.32421875 C-49.6303125 41.08605469 -49.3621875 41.84789062 -49.0859375 42.6328125 C-44.98324883 53.44285731 -39.84407905 60.56570798 -29.1953125 65.44921875 C-20.45577712 68.77856556 -11.09196869 68.26476195 -2.5 64.69921875 C5.19445266 60.63248101 10.47895018 54.78462136 14.05859375 46.86328125 C16.79882012 37.56498502 16.65414334 27.51008943 12.6015625 18.63671875 C9.55186662 13.47294797 6.08212691 9.65386982 1.1015625 6.32421875 C0.48152344 5.89238281 -0.13851562 5.46054687 -0.77734375 5.015625 C-8.13986703 0.85169305 -17.73017568 1.12414237 -25.8984375 2.32421875 C-35.50575019 5.25719555 -41.50812995 10.61523575 -46.1484375 19.32421875 C-47.82875437 22.90889474 -48.93930296 26.48768059 -49.8984375 30.32421875 C-51.2184375 30.32421875 -52.5384375 30.32421875 -53.8984375 30.32421875 C-53.36710939 20.76031282 -49.6510992 13.25197367 -42.57421875 6.78125 C-41.74470703 6.06001953 -41.74470703 6.06001953 -40.8984375 5.32421875 C-40.1353125 4.60234375 -39.3721875 3.88046875 -38.5859375 3.13671875 C-27.75405562 -4.16850391 -11.98270669 -5.86782028 0 0 Z " fill="#010101" transform="translate(816.8984375,732.67578125)"/>
</svg>
