<svg xmlns="http://www.w3.org/2000/svg" xmlns:xlink="http://www.w3.org/1999/xlink" width="500" zoomAndPan="magnify" viewBox="0 0 375 374.999991" height="500" preserveAspectRatio="xMidYMid meet" version="1.2"><defs><clipPath id="4bec5c8cb6"><path d="M 163.195312 149.46875 L 179.742188 149.46875 L 179.742188 166.019531 L 163.195312 166.019531 Z M 163.195312 149.46875 "/></clipPath><clipPath id="581c49686c"><path d="M 171.46875 149.46875 C 166.898438 149.46875 163.195312 153.175781 163.195312 157.746094 C 163.195312 162.316406 166.898438 166.019531 171.46875 166.019531 C 176.039062 166.019531 179.742188 162.316406 179.742188 157.746094 C 179.742188 153.175781 176.039062 149.46875 171.46875 149.46875 Z M 171.46875 149.46875 "/></clipPath><clipPath id="a63ba91f31"><path d="M 141.652344 171.363281 L 164.84375 171.363281 L 164.84375 194.554688 L 141.652344 194.554688 Z M 141.652344 171.363281 "/></clipPath><clipPath id="2658df551a"><path d="M 153.25 171.363281 C 146.84375 171.363281 141.652344 176.554688 141.652344 182.960938 C 141.652344 189.363281 146.84375 194.554688 153.25 194.554688 C 159.652344 194.554688 164.84375 189.363281 164.84375 182.960938 C 164.84375 176.554688 159.652344 171.363281 153.25 171.363281 Z M 153.25 171.363281 "/></clipPath><clipPath id="ba1ba9d36c"><path d="M 211.484375 144.15625 L 233.347656 144.15625 L 233.347656 166.019531 L 211.484375 166.019531 Z M 211.484375 144.15625 "/></clipPath><clipPath id="cc39c6c352"><path d="M 222.414062 144.15625 C 216.378906 144.15625 211.484375 149.050781 211.484375 155.089844 C 211.484375 161.125 216.378906 166.019531 222.414062 166.019531 C 228.453125 166.019531 233.347656 161.125 233.347656 155.089844 C 233.347656 149.050781 228.453125 144.15625 222.414062 144.15625 Z M 222.414062 144.15625 "/></clipPath><clipPath id="a082f66bcc"><path d="M 183.75 211.449219 L 203.144531 211.449219 L 203.144531 230.84375 L 183.75 230.84375 Z M 183.75 211.449219 "/></clipPath><clipPath id="280862e232"><path d="M 193.449219 211.449219 C 188.09375 211.449219 183.75 215.789062 183.75 221.144531 C 183.75 226.5 188.09375 230.84375 193.449219 230.84375 C 198.804688 230.84375 203.144531 226.5 203.144531 221.144531 C 203.144531 215.789062 198.804688 211.449219 193.449219 211.449219 Z M 193.449219 211.449219 "/></clipPath><clipPath id="cda1b37a6b"><path d="M 181.132812 170.644531 L 205.882812 170.644531 L 205.882812 195.394531 L 181.132812 195.394531 Z M 181.132812 170.644531 "/></clipPath><clipPath id="aa56264eec"><path d="M 182.328125 171.785156 L 204.828125 171.785156 L 204.828125 194.285156 L 182.328125 194.285156 Z M 182.328125 171.785156 "/></clipPath></defs><g id="29a217e82c"><g clip-rule="nonzero" clip-path="url(#4bec5c8cb6)"><g clip-rule="nonzero" clip-path="url(#581c49686c)"><path style=" stroke:none;fill-rule:nonzero;fill:#000000;fill-opacity:1;" d="M 163.195312 149.46875 L 179.742188 149.46875 L 179.742188 166.019531 L 163.195312 166.019531 Z M 163.195312 149.46875 "/></g></g><g clip-rule="nonzero" clip-path="url(#a63ba91f31)"><g clip-rule="nonzero" clip-path="url(#2658df551a)"><path style=" stroke:none;fill-rule:nonzero;fill:#000000;fill-opacity:1;" d="M 141.652344 171.363281 L 164.84375 171.363281 L 164.84375 194.554688 L 141.652344 194.554688 Z M 141.652344 171.363281 "/></g></g><g clip-rule="nonzero" clip-path="url(#ba1ba9d36c)"><g clip-rule="nonzero" clip-path="url(#cc39c6c352)"><path style=" stroke:none;fill-rule:nonzero;fill:#000000;fill-opacity:1;" d="M 211.484375 144.15625 L 233.347656 144.15625 L 233.347656 166.019531 L 211.484375 166.019531 Z M 211.484375 144.15625 "/></g></g><g clip-rule="nonzero" clip-path="url(#a082f66bcc)"><g clip-rule="nonzero" clip-path="url(#280862e232)"><path style=" stroke:none;fill-rule:nonzero;fill:#000000;fill-opacity:1;" d="M 183.75 211.449219 L 203.144531 211.449219 L 203.144531 230.84375 L 183.75 230.84375 Z M 183.75 211.449219 "/></g></g><path style="fill:none;stroke-width:3;stroke-linecap:butt;stroke-linejoin:miter;stroke:#000000;stroke-opacity:1;stroke-miterlimit:4;" d="M 0.00153317 1.499975 L 17.479511 1.501395 " transform="matrix(0.482124,0.547972,-0.547972,0.482124,177.778236,163.217392)"/><path style="fill:none;stroke-width:3;stroke-linecap:butt;stroke-linejoin:miter;stroke:#000000;stroke-opacity:1;stroke-miterlimit:4;" d="M 0.00257015 1.498898 L 38.057933 1.500606 " transform="matrix(-0.54308,0.515926,-0.515926,-0.54308,223.184872,155.906445)"/><g clip-rule="nonzero" clip-path="url(#cda1b37a6b)"><path style=" stroke:none;fill-rule:nonzero;fill:#000000;fill-opacity:1;" d="M 193.011719 170.667969 C 192.953125 170.671875 192.777344 170.683594 192.613281 170.695312 C 190.65625 170.855469 188.65625 171.550781 186.972656 172.667969 C 185.339844 173.75 183.941406 175.273438 183.035156 176.953125 C 182.976562 177.058594 182.902344 177.199219 182.867188 177.265625 C 182.832031 177.328125 182.742188 177.511719 182.671875 177.667969 C 181.226562 180.769531 181.132812 184.320312 182.410156 187.484375 C 183.632812 190.519531 186.0625 192.960938 189.082031 194.195312 C 191.730469 195.277344 194.65625 195.386719 197.367188 194.503906 C 198.65625 194.085938 199.792969 193.492188 200.882812 192.671875 C 201.75 192.023438 202.636719 191.132812 203.308594 190.25 C 204.398438 188.804688 205.171875 187.066406 205.527344 185.28125 C 205.882812 183.503906 205.84375 181.699219 205.417969 179.953125 C 204.347656 175.574219 200.9375 172.117188 196.617188 171.027344 C 195.960938 170.859375 195.425781 170.769531 194.699219 170.695312 C 194.472656 170.671875 193.199219 170.652344 193.011719 170.667969 Z M 194.449219 172.136719 C 195.5 172.21875 196.472656 172.4375 197.464844 172.816406 C 199.230469 173.484375 200.816406 174.652344 202.03125 176.175781 C 202.226562 176.425781 202.640625 177.035156 202.863281 177.398438 C 203.046875 177.707031 203.523438 178.65625 203.523438 178.722656 C 203.523438 178.730469 203.542969 178.773438 203.5625 178.824219 C 203.730469 179.191406 204.003906 180.105469 204.121094 180.675781 C 204.285156 181.476562 204.339844 182.019531 204.34375 182.878906 C 204.34375 183.988281 204.226562 184.835938 203.917969 185.90625 C 203.152344 188.597656 201.328125 190.910156 198.878906 192.292969 C 197.582031 193.03125 196.171875 193.464844 194.589844 193.625 C 194.230469 193.664062 193.105469 193.660156 192.734375 193.625 C 191.578125 193.511719 190.507812 193.242188 189.5 192.816406 C 189.09375 192.644531 188.480469 192.328125 188.0625 192.070312 C 187 191.421875 185.9375 190.457031 185.171875 189.441406 C 183.914062 187.773438 183.175781 185.84375 183 183.742188 C 182.960938 183.277344 182.988281 182.019531 183.042969 181.589844 C 183.136719 180.867188 183.300781 180.128906 183.511719 179.496094 C 183.609375 179.191406 183.847656 178.574219 183.898438 178.472656 C 183.914062 178.453125 183.988281 178.292969 184.074219 178.117188 C 185.003906 176.167969 186.628906 174.46875 188.566406 173.410156 C 189.871094 172.699219 191.339844 172.261719 192.84375 172.140625 C 193.167969 172.113281 194.125 172.113281 194.449219 172.136719 Z M 194.449219 172.136719 "/></g><path style="fill:none;stroke-width:3;stroke-linecap:butt;stroke-linejoin:miter;stroke:#000000;stroke-opacity:1;stroke-miterlimit:4;" d="M -0.00230996 1.499621 L 43.065407 1.499621 " transform="matrix(0,0.748911,-0.748911,0,194.572302,194.134542)"/><path style="fill:none;stroke-width:3;stroke-linecap:butt;stroke-linejoin:miter;stroke:#000000;stroke-opacity:1;stroke-miterlimit:4;" d="M 0.000633194 1.502438 L 39.854802 1.502438 " transform="matrix(-0.75,0,0,-0.75,182.812975,184.14636)"/><g clip-rule="nonzero" clip-path="url(#aa56264eec)"><path style=" stroke:none;fill-rule:nonzero;fill:#000000;fill-opacity:1;" d="M 193.128906 171.804688 C 193.078125 171.808594 192.917969 171.824219 192.769531 171.835938 C 190.988281 171.976562 189.167969 172.613281 187.640625 173.625 C 186.15625 174.609375 184.882812 175.996094 184.058594 177.519531 C 184.007812 177.617188 183.9375 177.746094 183.90625 177.804688 C 183.875 177.863281 183.792969 178.027344 183.730469 178.171875 C 182.414062 180.992188 182.328125 184.21875 183.492188 187.097656 C 184.601562 189.855469 186.8125 192.074219 189.554688 193.195312 C 191.964844 194.179688 194.625 194.277344 197.089844 193.476562 C 198.257812 193.09375 199.292969 192.554688 200.285156 191.8125 C 201.074219 191.222656 201.882812 190.414062 202.488281 189.609375 C 203.480469 188.296875 204.183594 186.714844 204.507812 185.09375 C 204.828125 183.476562 204.796875 181.835938 204.40625 180.25 C 203.433594 176.269531 200.335938 173.125 196.40625 172.132812 C 195.808594 171.984375 195.324219 171.898438 194.664062 171.835938 C 194.457031 171.8125 193.300781 171.792969 193.128906 171.804688 Z M 194.4375 173.144531 C 195.394531 173.21875 196.273438 173.417969 197.179688 173.757812 C 198.785156 174.367188 200.226562 175.429688 201.328125 176.816406 C 201.507812 177.042969 201.886719 177.597656 202.085938 177.925781 C 202.253906 178.207031 202.683594 179.070312 202.683594 179.128906 C 202.683594 179.136719 202.703125 179.179688 202.722656 179.222656 C 202.871094 179.554688 203.125 180.386719 203.230469 180.90625 C 203.378906 181.636719 203.429688 182.128906 203.429688 182.910156 C 203.429688 183.917969 203.324219 184.6875 203.046875 185.660156 C 202.351562 188.105469 200.691406 190.210938 198.464844 191.46875 C 197.285156 192.136719 196.003906 192.535156 194.566406 192.679688 C 194.238281 192.710938 193.214844 192.710938 192.878906 192.675781 C 191.824219 192.574219 190.851562 192.332031 189.9375 191.941406 C 189.570312 191.785156 189.011719 191.496094 188.628906 191.265625 C 187.664062 190.675781 186.699219 189.796875 186 188.875 C 184.859375 187.359375 184.1875 185.601562 184.027344 183.695312 C 183.992188 183.273438 184.015625 182.128906 184.066406 181.738281 C 184.152344 181.082031 184.304688 180.410156 184.492188 179.832031 C 184.582031 179.558594 184.796875 178.996094 184.847656 178.902344 C 184.859375 178.886719 184.925781 178.738281 185.003906 178.582031 C 185.851562 176.808594 187.328125 175.261719 189.085938 174.300781 C 190.273438 173.652344 191.609375 173.257812 192.976562 173.144531 C 193.273438 173.121094 194.140625 173.121094 194.4375 173.144531 Z M 194.4375 173.144531 "/></g></g></svg>