<svg xmlns="http://www.w3.org/2000/svg" xmlns:xlink="http://www.w3.org/1999/xlink" width="500" zoomAndPan="magnify" viewBox="0 0 375 374.999991" height="500" preserveAspectRatio="xMidYMid meet" version="1.2"><defs><clipPath id="ef6317d392"><path d="M 126.832031 92.574219 L 168.140625 92.574219 L 168.140625 133.882812 L 126.832031 133.882812 Z M 126.832031 92.574219 "/></clipPath><clipPath id="b94c02700c"><path d="M 147.488281 92.574219 C 136.078125 92.574219 126.832031 101.824219 126.832031 113.230469 C 126.832031 124.636719 136.078125 133.882812 147.488281 133.882812 C 158.894531 133.882812 168.140625 124.636719 168.140625 113.230469 C 168.140625 101.824219 158.894531 92.574219 147.488281 92.574219 Z M 147.488281 92.574219 "/></clipPath><clipPath id="ae4989d850"><path d="M 73.066406 147.226562 L 130.949219 147.226562 L 130.949219 205.105469 L 73.066406 205.105469 Z M 73.066406 147.226562 "/></clipPath><clipPath id="2c7c00fa8e"><path d="M 102.007812 147.226562 C 86.023438 147.226562 73.066406 160.183594 73.066406 176.167969 C 73.066406 192.148438 86.023438 205.105469 102.007812 205.105469 C 117.992188 205.105469 130.949219 192.148438 130.949219 176.167969 C 130.949219 160.183594 117.992188 147.226562 102.007812 147.226562 Z M 102.007812 147.226562 "/></clipPath><clipPath id="66d5884285"><path d="M 247.367188 79.316406 L 301.933594 79.316406 L 301.933594 133.882812 L 247.367188 133.882812 Z M 247.367188 79.316406 "/></clipPath><clipPath id="945dc9381e"><path d="M 274.652344 79.316406 C 259.582031 79.316406 247.367188 91.53125 247.367188 106.601562 C 247.367188 121.667969 259.582031 133.882812 274.652344 133.882812 C 289.71875 133.882812 301.933594 121.667969 301.933594 106.601562 C 301.933594 91.53125 289.71875 79.316406 274.652344 79.316406 Z M 274.652344 79.316406 "/></clipPath><clipPath id="e615edc7fd"><path d="M 178.144531 247.277344 L 226.550781 247.277344 L 226.550781 295.683594 L 178.144531 295.683594 Z M 178.144531 247.277344 "/></clipPath><clipPath id="517e33ce90"><path d="M 202.347656 247.277344 C 188.980469 247.277344 178.144531 258.113281 178.144531 271.480469 C 178.144531 284.847656 188.980469 295.683594 202.347656 295.683594 C 215.714844 295.683594 226.550781 284.847656 226.550781 271.480469 C 226.550781 258.113281 215.714844 247.277344 202.347656 247.277344 Z M 202.347656 247.277344 "/></clipPath><clipPath id="ac0a58b9aa"><path d="M 172 145.425781 L 233 145.425781 L 233 206.925781 L 172 206.925781 Z M 172 145.425781 "/></clipPath><clipPath id="d582ce3b54"><path d="M 175 148.277344 L 230 148.277344 L 230 203.777344 L 175 203.777344 Z M 175 148.277344 "/></clipPath></defs><g id="2585f5b06c"><rect x="0" width="375" y="0" height="374.999991" style="fill:#ffffff;fill-opacity:1;stroke:none;"/><rect x="0" width="375" y="0" height="374.999991" style="fill:#0bb8a9;fill-opacity:1;stroke:none;"/><g clip-rule="nonzero" clip-path="url(#ef6317d392)"><g clip-rule="nonzero" clip-path="url(#b94c02700c)"><path style=" stroke:none;fill-rule:nonzero;fill:#000000;fill-opacity:1;" d="M 126.832031 92.574219 L 168.140625 92.574219 L 168.140625 133.882812 L 126.832031 133.882812 Z M 126.832031 92.574219 "/></g></g><g clip-rule="nonzero" clip-path="url(#ae4989d850)"><g clip-rule="nonzero" clip-path="url(#2c7c00fa8e)"><path style=" stroke:none;fill-rule:nonzero;fill:#000000;fill-opacity:1;" d="M 73.066406 147.226562 L 130.949219 147.226562 L 130.949219 205.105469 L 73.066406 205.105469 Z M 73.066406 147.226562 "/></g></g><g clip-rule="nonzero" clip-path="url(#66d5884285)"><g clip-rule="nonzero" clip-path="url(#945dc9381e)"><path style=" stroke:none;fill-rule:nonzero;fill:#000000;fill-opacity:1;" d="M 247.367188 79.316406 L 301.933594 79.316406 L 301.933594 133.882812 L 247.367188 133.882812 Z M 247.367188 79.316406 "/></g></g><g clip-rule="nonzero" clip-path="url(#e615edc7fd)"><g clip-rule="nonzero" clip-path="url(#517e33ce90)"><path style=" stroke:none;fill-rule:nonzero;fill:#000000;fill-opacity:1;" d="M 178.144531 247.277344 L 226.550781 247.277344 L 226.550781 295.683594 L 178.144531 295.683594 Z M 178.144531 247.277344 "/></g></g><path style="fill:none;stroke-width:8;stroke-linecap:butt;stroke-linejoin:miter;stroke:#000000;stroke-opacity:1;stroke-miterlimit:4;" d="M -0.00031398 3.999814 L 43.634601 4.000427 " transform="matrix(0.495418,0.563081,-0.563081,0.495418,163.381283,126.756877)"/><path style="fill:none;stroke-width:8;stroke-linecap:butt;stroke-linejoin:miter;stroke:#000000;stroke-opacity:1;stroke-miterlimit:4;" d="M 0.000110102 3.999426 L 94.986178 3.999067 " transform="matrix(-0.543749,0.516562,-0.516562,-0.543749,276.71445,108.776191)"/><g clip-rule="nonzero" clip-path="url(#ac0a58b9aa)"><path style=" stroke:none;fill-rule:nonzero;fill:#000000;fill-opacity:1;" d="M 201.121094 145.472656 C 200.984375 145.484375 200.542969 145.515625 200.136719 145.550781 C 195.273438 145.941406 190.300781 147.675781 186.121094 150.449219 C 182.066406 153.140625 178.585938 156.929688 176.332031 161.097656 C 176.191406 161.363281 176 161.714844 175.914062 161.871094 C 175.832031 162.035156 175.609375 162.484375 175.429688 162.875 C 171.839844 170.589844 171.605469 179.410156 174.777344 187.28125 C 177.816406 194.816406 183.859375 200.890625 191.359375 203.957031 C 197.941406 206.644531 205.210938 206.914062 211.945312 204.722656 C 215.148438 203.679688 217.972656 202.203125 220.6875 200.175781 C 222.835938 198.5625 225.042969 196.347656 226.707031 194.144531 C 229.417969 190.558594 231.34375 186.238281 232.226562 181.800781 C 233.105469 177.382812 233.011719 172.898438 231.949219 168.558594 C 229.292969 157.671875 220.824219 149.078125 210.085938 146.367188 C 208.449219 145.957031 207.125 145.726562 205.320312 145.550781 C 204.753906 145.488281 201.59375 145.433594 201.121094 145.472656 Z M 204.699219 149.132812 C 207.308594 149.335938 209.71875 149.878906 212.191406 150.8125 C 216.582031 152.480469 220.519531 155.382812 223.535156 159.171875 C 224.023438 159.789062 225.054688 161.304688 225.605469 162.210938 C 226.066406 162.972656 227.242188 165.335938 227.242188 165.496094 C 227.242188 165.515625 227.292969 165.628906 227.347656 165.753906 C 227.753906 166.660156 228.441406 168.933594 228.730469 170.347656 C 229.140625 172.347656 229.277344 173.699219 229.28125 175.832031 C 229.28125 178.585938 228.988281 180.691406 228.230469 183.355469 C 226.328125 190.042969 221.789062 195.796875 215.707031 199.230469 C 212.480469 201.058594 208.980469 202.144531 205.046875 202.539062 C 204.15625 202.632812 201.359375 202.628906 200.4375 202.535156 C 197.558594 202.253906 194.902344 201.589844 192.394531 200.527344 C 191.390625 200.105469 189.863281 199.3125 188.820312 198.675781 C 186.183594 197.066406 183.542969 194.660156 181.640625 192.136719 C 178.515625 187.996094 176.683594 183.195312 176.246094 177.980469 C 176.152344 176.824219 176.214844 173.699219 176.355469 172.628906 C 176.589844 170.832031 177 169 177.515625 167.417969 C 177.761719 166.664062 178.351562 165.128906 178.480469 164.878906 C 178.515625 164.832031 178.707031 164.429688 178.914062 163.996094 C 181.230469 159.148438 185.265625 154.921875 190.078125 152.292969 C 193.316406 150.527344 196.96875 149.441406 200.710938 149.136719 C 201.511719 149.070312 203.890625 149.066406 204.699219 149.132812 Z M 204.699219 149.132812 "/></g><path style="fill:none;stroke-width:8;stroke-linecap:butt;stroke-linejoin:miter;stroke:#000000;stroke-opacity:1;stroke-miterlimit:4;" d="M -0.00216127 3.997985 L 107.492684 3.997985 " transform="matrix(0,0.74662,-0.74662,0,205.344351,204.060207)"/><path style="fill:none;stroke-width:8;stroke-linecap:butt;stroke-linejoin:miter;stroke:#000000;stroke-opacity:1;stroke-miterlimit:4;" d="M 0.00259376 3.999227 L 99.476581 3.999227 " transform="matrix(-0.746466,0,0,-0.746466,175.814436,179.321223)"/><g clip-rule="nonzero" clip-path="url(#d582ce3b54)"><path style=" stroke:none;fill-rule:nonzero;fill:#000000;fill-opacity:1;" d="M 201.230469 148.324219 C 201.109375 148.332031 200.710938 148.363281 200.34375 148.390625 C 195.953125 148.742188 191.464844 150.308594 187.695312 152.8125 C 184.035156 155.242188 180.894531 158.660156 178.863281 162.421875 C 178.734375 162.660156 178.5625 162.976562 178.484375 163.121094 C 178.410156 163.265625 178.207031 163.671875 178.046875 164.027344 C 174.808594 170.984375 174.59375 178.945312 177.460938 186.046875 C 180.199219 192.847656 185.652344 198.328125 192.421875 201.09375 C 198.363281 203.519531 204.921875 203.761719 211 201.785156 C 213.890625 200.84375 216.4375 199.511719 218.890625 197.679688 C 220.828125 196.226562 222.820312 194.230469 224.324219 192.242188 C 226.769531 189.003906 228.503906 185.105469 229.304688 181.101562 C 230.09375 177.113281 230.011719 173.070312 229.050781 169.152344 C 226.65625 159.332031 219.011719 151.574219 209.320312 149.128906 C 207.84375 148.757812 206.648438 148.550781 205.019531 148.390625 C 204.507812 148.335938 201.660156 148.289062 201.230469 148.324219 Z M 204.460938 151.621094 C 206.816406 151.808594 208.992188 152.296875 211.222656 153.140625 C 215.183594 154.644531 218.738281 157.265625 221.457031 160.683594 C 221.902344 161.238281 222.832031 162.605469 223.328125 163.425781 C 223.742188 164.113281 224.804688 166.246094 224.804688 166.390625 C 224.804688 166.40625 224.847656 166.507812 224.898438 166.621094 C 225.265625 167.4375 225.886719 169.492188 226.148438 170.769531 C 226.515625 172.570312 226.640625 173.789062 226.644531 175.714844 C 226.644531 178.203125 226.378906 180.101562 225.695312 182.507812 C 223.976562 188.539062 219.882812 193.730469 214.394531 196.828125 C 211.480469 198.480469 208.324219 199.457031 204.773438 199.816406 C 203.972656 199.898438 201.449219 199.894531 200.617188 199.8125 C 198.015625 199.558594 195.621094 198.960938 193.355469 198 C 192.449219 197.617188 191.074219 196.902344 190.132812 196.328125 C 187.75 194.875 185.367188 192.707031 183.652344 190.429688 C 180.832031 186.691406 179.175781 182.359375 178.785156 177.652344 C 178.699219 176.609375 178.753906 173.789062 178.882812 172.824219 C 179.09375 171.203125 179.460938 169.550781 179.929688 168.125 C 180.152344 167.445312 180.683594 166.058594 180.800781 165.832031 C 180.832031 165.789062 181.003906 165.425781 181.191406 165.035156 C 183.28125 160.664062 186.925781 156.847656 191.265625 154.476562 C 194.1875 152.882812 197.484375 151.902344 200.863281 151.628906 C 201.585938 151.570312 203.730469 151.5625 204.460938 151.621094 Z M 204.460938 151.621094 "/></g></g></svg>